<svg width="140" height="93" viewBox="0 0 140 93" fill="none" xmlns="http://www.w3.org/2000/svg">
<path d="M6.80105 43.4291C7.62366 48.1246 7.01376 49.7446 4.74923 49.4559C3.49367 49.2951 1.51902 48.3746 1.33643 47.4773C0.993834 45.8068 1.15949 43.4639 2.10822 42.1752C5.13512 38.063 9.8449 37.7413 14.3438 37.9429C18.3835 38.125 21.3389 41.1675 21.64 45.3786C21.9469 49.6846 21.5704 54.039 21.5497 58.3722C21.5497 59.3895 21.7586 60.4108 21.8245 60.998C23.9535 60.8778 25.6533 60.5135 27.2647 60.7596C29.3353 61.0736 30.2916 60.3721 30.2765 58.3276C30.2464 52.9015 30.1391 47.4754 30.077 42.0493C30.0676 41.2528 30.1372 40.4544 30.1654 39.656C30.3217 35.2124 29.9245 34.7182 25.6477 34.0361C23.3888 33.6795 21.5064 31.6641 21.7567 29.8502C22.0899 27.3097 24.0702 26.1101 26.9183 26.6314C28.172 26.8601 29.4633 26.8581 30.7245 27.0442C32.0422 27.238 34.1015 27.1178 34.4743 27.86C35.4719 29.8464 36.6202 32.447 36.1458 34.4023C34.1486 42.6345 36.1873 50.8512 35.6602 59.0485C35.5096 61.4011 37.1454 61.7848 39.1144 61.3526C40.7069 61.0038 42.3427 60.5658 43.9428 60.6337C45.7875 60.7112 46.8341 60.1589 46.8548 58.2365C46.9151 52.8104 46.9075 47.394 46.9226 41.9718C46.9226 41.183 46.8718 40.3885 46.9226 39.6017C47.1617 35.3267 46.9226 34.9353 43.0411 33.5594C39.7281 32.3947 38.7774 30.6506 39.9389 27.9763C40.6354 26.364 41.633 25.5888 43.4251 26.2186C44.3437 26.5403 45.3658 26.5364 46.3071 26.8252C48.2026 27.4065 51.1787 25.5307 51.7321 29.2243C52.0484 31.356 52.4211 33.5032 52.4192 35.6445C52.4192 40.6385 52.1764 45.6305 52.0804 50.6264C52.0352 52.9364 52.214 55.2541 52.0804 57.5563C51.9147 60.4883 52.8578 61.6162 55.5816 61.2383C57.5751 60.9573 59.898 59.8333 60.4872 63.089C60.8467 65.0714 58.9813 66.2594 55.8057 66.2826C47.695 66.3408 39.5844 66.3924 31.4737 66.4377C28.6652 66.4512 25.8585 66.4067 23.05 66.3892C22.8617 66.3892 22.5869 66.4842 22.4702 66.3892C17.7792 62.465 13.4158 67.2845 8.80581 66.9977C5.72808 66.8039 1.09737 64.6296 0.34817 61.8042C-0.734212 57.7113 0.724651 54.3336 4.6777 52.7968C7.86272 51.5585 11.2774 50.9558 14.4831 49.7679C15.3377 49.4501 16.3072 48.0238 16.3053 47.0936C16.3053 46.1402 15.334 44.553 14.5283 44.3554C12.132 43.7585 9.61712 43.7197 6.80105 43.4291ZM16.5067 54.0681C13.1918 54.946 9.97478 55.6397 6.88764 56.723C6.06691 57.0117 5.30642 58.4439 5.15395 59.4535C5.04477 60.1608 5.94456 61.6646 6.51681 61.7325C8.54039 61.9747 11.3339 62.5851 12.5104 61.5135C14.3645 59.8275 18.2159 58.7287 16.5067 54.0681Z" fill="black"/>
<path d="M130.085 52.8839C127.84 52.8839 125.583 52.7367 123.354 52.944C122.138 53.0564 120.973 53.7657 119.777 54.2056C120.4 55.8509 120.572 58.0465 121.724 59.0503C126.279 63.0075 130.324 62.43 134.078 57.5504C135.328 55.9245 136.932 55.2249 138.325 56.345C139.078 56.9477 139.202 59.1511 138.807 60.3526C137.502 64.3311 133.685 65.1372 130.437 66.205C126.396 67.5325 122.309 66.1275 119.077 63.804C115.448 61.1956 113.795 56.6977 113.36 52.3181C112.852 47.2272 114.096 42.3767 118.106 38.6443C121.812 35.1948 125.982 34.4875 130.612 35.7995C136.448 37.4506 139.272 41.7275 139.959 47.6594C140.286 50.4771 138.214 52.5584 135.356 52.5971C134.477 52.6088 133.602 52.7696 132.721 52.8064C131.84 52.8432 130.957 52.8064 130.076 52.8064L130.085 52.8839ZM128.659 48.076C128.674 48.076 129.374 48.1613 129.811 47.8532C130.921 47.0664 131.915 46.1091 132.958 45.2099C132.083 44.1421 131.405 42.6906 130.294 42.0802C127.17 40.369 122.554 41.6926 120.404 44.6983C119.984 45.3448 119.819 46.1325 119.945 46.8997C120.016 47.2389 121.048 47.5005 121.667 47.5625C123.804 47.7776 125.952 47.8861 128.659 48.076Z" fill="black"/>
<path d="M75.9435 64.3992C74.5826 64.9806 72.9486 66.1162 71.1942 66.3681C63.8359 67.4262 61.3926 63.8179 60.0448 56.0973C59.4951 52.954 59.8565 49.648 59.7436 46.4175C59.6927 44.9699 59.4424 43.8285 57.5732 43.4564C55.3425 43.0165 54.8023 41.0825 55.222 38.9528C55.6305 36.8908 57.0329 36.5769 58.8118 36.9528C59.3596 37.0691 59.9619 36.918 60.5398 36.8889C63.7023 36.7222 65.4755 38.9741 65.3644 42.1987C65.1789 47.3175 65.2449 52.4427 65.5621 57.5546C65.6374 58.7076 67.0849 60.3297 68.2125 60.6862C69.2591 61.0176 71.0361 60.2986 71.9491 59.4305C75.3374 56.1845 76.5779 52.1052 75.68 47.3477C75.4918 46.3303 75.7591 45.216 75.84 43.7452C74.8837 43.4215 73.6621 43.1464 72.5703 42.5979C71.3806 41.9972 70.3114 41.1426 69.1914 40.3984C70.5297 39.1175 71.6855 37.1835 73.2498 36.7164C75.0927 36.1758 77.3478 36.6738 79.3055 37.199C80.2467 37.4528 81.4609 38.7066 81.6096 39.664C81.9766 42.0301 81.8712 44.4874 81.8242 46.9059C81.7526 50.615 81.6265 54.3241 81.41 58.0255C81.314 59.6494 81.8562 60.5079 83.4298 60.7134C85.0751 60.9265 86.6638 61.8199 85.86 63.5679C85.2784 64.8333 83.4355 66.2383 82.1592 66.2344C80.1375 66.2383 78.1196 65.1066 75.9435 64.3992Z" fill="black"/>
<path d="M99.2819 39.5147C101.019 38.4954 102.821 37.2765 104.752 36.3405C107.472 35.0227 110.281 36.0944 111.612 39.3113C112.382 41.1697 112.792 43.5339 112.365 45.4389C112.094 46.6675 109.631 48.5511 108.845 48.2469C107.299 47.6461 106.136 45.8032 105.033 44.3052C104.694 43.8479 105.063 42.8363 105.114 41.9797C101.161 43.4448 97.7007 48.2934 97.7233 52.0103C97.7346 53.6245 97.6442 55.2388 97.5972 56.855C97.5049 59.9731 98.608 61.0893 101.738 61.3277C103.318 61.4478 105.855 60.4246 105.85 63.2559C105.844 66.0871 103.271 65.8352 101.373 65.8895C97.5878 65.9999 93.7891 65.8119 90.0111 66.0251C88.1983 66.1278 87.3757 65.3837 87.2101 63.7868C87.0219 61.9594 88.1513 61.2482 89.7909 61.3742C92.3472 61.5679 93.0361 59.9808 93.0606 57.791C93.1058 53.6568 93.1277 49.5168 93.1265 45.371C93.1265 42.6328 92.0403 41.5321 89.1414 41.6193C87.9292 41.6561 86.6585 39.6988 85.4162 38.6485C86.5117 37.7241 87.5094 36.2203 88.7273 35.9994C91.0031 35.5866 93.4935 35.5401 95.7223 36.0866C97.008 36.3986 97.9586 38.1737 99.2819 39.5147Z" fill="black"/>
</svg>
