<svg width="50" height="48" viewBox="0 0 50 48" fill="none" xmlns="http://www.w3.org/2000/svg">
<path d="M23.9903 18.5499C23.9778 16.9725 23.4661 15.4403 22.5297 14.1765C21.5934 12.9126 20.2812 11.9831 18.7844 11.5232C18.4489 11.4196 18.1135 11.3361 17.6976 11.2234V10.2225C17.6976 7.5444 17.6976 4.86779 17.6976 2.19268C17.6976 0.758944 17.5701 0.62594 16.1859 0.62594H1.50722C1.29702 0.62594 1.03314 0.547039 0.894494 0.646229C0.576306 0.895076 0.277284 1.16788 0 1.46229C0.292947 1.73957 0.561295 2.21297 0.894494 2.25806C1.74426 2.37303 2.61863 2.30089 3.48406 2.30089H6.64162C6.65951 2.70441 6.68411 2.99747 6.68411 3.29278C6.68411 5.63726 6.65951 7.98399 6.70647 10.3285C6.71989 11.0318 6.49627 11.2978 5.82987 11.4827C2.6164 12.3754 0.39805 15.1865 0.38016 18.4913C0.342144 25.6194 0.330963 32.7475 0.38016 39.8756C0.411467 44.276 3.62047 47.4028 7.95206 47.4073C10.7563 47.4073 13.5628 47.3284 16.3648 47.4253C21.0229 47.5899 24.0015 43.6899 23.997 39.8418C23.9903 32.7363 24.0127 25.6487 23.9903 18.5499ZM8.42837 2.36175H15.9421V11.1535H8.42837V2.36175ZM22.3243 39.8982C22.3065 42.9978 19.9741 45.8721 16.3625 45.7391C13.4107 45.6331 10.4522 45.7391 7.4981 45.7075C4.18176 45.6602 1.52735 42.4072 2.17586 39.1407H15.6537C16.85 39.1407 17.0178 38.9784 17.0178 37.7882C17.0178 32.2831 17.0178 26.7774 17.0178 21.2709C17.0178 20.0964 16.8478 19.9341 15.6447 19.9318C11.4957 19.9318 7.34678 19.9318 3.19782 19.9318H2.17139C1.53629 16.2528 4.19965 12.7473 7.82683 12.8984C10.687 13.0156 13.5605 13.0224 16.4207 12.8984C19.699 12.7541 22.2975 15.3488 22.3266 18.6942C22.3802 25.7479 22.3624 32.8287 22.3243 39.8982ZM2.11548 37.4049V21.6902H15.2757V37.4139L2.11548 37.4049Z" fill="black"/>
<path d="M48.4167 0.5H39.6417C36.5691 0.5 33.4928 0.5 30.4127 0.5C29.27 0.5 29.071 0.743465 29.1582 1.91119C29.1716 2.06223 29.1828 2.21327 29.2007 2.36206C30.5111 13.5945 31.8238 24.8262 33.1387 36.0571C33.179 36.3908 33.3892 36.7041 33.5323 37.022C33.6754 37.3398 33.9795 37.6983 33.9929 38.0387C34.0377 40.0247 33.9929 42.0108 34.022 43.9946C34.0578 46.2489 35.3324 47.491 37.5486 47.5C38.9797 47.5 40.4132 47.5 41.8444 47.5C42.9356 47.5 43.7988 47.0221 44.255 46.0685C44.6025 45.3439 44.8039 44.557 44.8476 43.7533C44.9304 41.8327 44.861 39.903 44.8901 37.9801C44.8901 37.7096 45.0511 37.27 45.2345 37.2068C45.9054 36.9814 45.9546 36.4877 46.0194 35.9332C46.4532 32.2 46.9139 28.4669 47.3366 24.7338C48.2087 17.236 49.0756 9.73814 49.9373 2.24032C50.1207 0.639767 49.9776 0.5 48.4167 0.5ZM43.251 41.0504C43.251 42.0716 43.2644 43.0973 43.204 44.1163C43.128 45.3652 42.6136 45.8205 41.3994 45.8228C40.0576 45.8228 38.7159 45.7935 37.3741 45.8363C36.4461 45.8656 35.8624 45.3855 35.8356 44.5581C35.7551 42.137 35.8065 39.7136 35.8065 37.2407H43.2532C43.251 38.5459 43.2554 39.797 43.251 41.0504ZM45.6191 25.0088C42.873 24.7563 40.2253 21.0886 40.317 17.7432C40.4244 13.85 43.5014 10.5294 47.3187 10.3626C46.7372 15.2995 46.176 20.1553 45.6191 25.0088ZM47.5356 8.51856C46.9072 8.63353 46.3235 8.71243 45.7466 8.84769C41.8801 9.76519 38.9596 13.1737 38.6734 17.0872C38.367 21.2667 40.648 25.0313 44.4719 26.5214C45.1853 26.801 45.4134 27.1053 45.3083 27.874C44.9706 30.3763 44.709 32.8876 44.4138 35.4598H34.7533C33.4652 24.3956 32.1816 13.3495 30.889 2.23807H48.2333C47.9985 4.34359 47.7659 6.41079 47.5289 8.51856H47.5356Z" fill="black"/>
</svg>
