<svg width="140" height="93" viewBox="0 0 140 93" fill="none" xmlns="http://www.w3.org/2000/svg">
<g clip-path="url(#clip0)">
<path d="M69.1081 46.3357C72.6564 42.7016 74.4933 37.7969 79.5865 35.9219C79.7298 36.2557 79.9413 36.5222 79.9427 36.7888C79.9713 42.8254 80.0259 48.8621 79.9645 54.8988C79.9399 57.3942 77.654 58.8963 74.6871 58.335V47.1137L74.1631 46.9226L68.4995 54.4438C66.7553 52.2338 65.1723 50.2283 63.5865 48.2228L63.0024 48.3385C63.0024 50.418 63.0283 52.5003 62.9955 54.5798C62.9519 57.3915 60.9662 58.9057 57.8314 58.3324C57.8314 51.8892 57.7332 45.3949 57.9379 38.91C57.9693 37.9409 59.3026 36.8507 60.2961 36.179C60.5568 36.0014 61.9338 37.0445 62.507 37.7552C64.7096 40.4807 66.7922 43.3019 69.1081 46.3357ZM78.1985 55.1976L78.8973 55.1787V37.3985L70.1917 49.1017L61.4302 37.4806V55.1801L62.133 55.1962V41.2614L62.7458 41.1107L70.1808 50.9134C72.7738 47.4677 75.1689 44.2858 77.5626 41.1053L78.204 41.3745L78.1985 55.1976Z" fill="black"/>
<path d="M20.0695 38.2372C10.6816 35.1239 4.84332 37.0554 3.18382 43.6628C1.75632 49.3441 5.34553 54.8128 11.0992 55.724C16.6127 56.5976 21.2063 53.2178 21.6553 47.8205H13.1217L13.1012 48.4464H20.2961C20.0231 51.7965 17.8314 54.0537 14.6516 54.5988C10.3118 55.3418 6.48235 53.4628 4.86379 49.7937C3.22612 46.0923 4.29061 41.5563 7.33939 39.1874C10.6352 36.6301 15.5427 36.8333 19.9358 40.0758L16.5131 42.2482C14.556 41.773 12.2892 40.9183 9.96239 40.7339C7.04734 40.5038 5.35099 42.2684 5.04939 45.1407C4.40388 51.1518 9.64987 55.4589 15.4213 53.6082C16.266 53.339 17.0153 52.779 17.8095 52.3537C17.7522 52.1626 17.6949 51.9715 17.6362 51.7803H10.4032C9.699 48.8192 11.0173 46.9523 13.6935 46.8985C16.5745 46.8406 19.4581 46.885 22.2585 46.885C23.6096 51.1545 17.235 58.3392 12.1596 58.914C6.15481 59.5964 0.981154 56.1507 0.150039 50.468C-0.668795 44.9145 1.94192 40.7393 6.33905 37.6328C10.4155 34.7498 14.7812 35.0163 19.1292 37.186C19.345 37.2925 19.5463 37.4255 19.7283 37.5817C19.8321 37.6746 19.8689 37.8401 20.0695 38.2372Z" fill="black"/>
<path d="M124.278 58.3944C124.278 51.9647 124.126 45.6924 124.415 39.4404C124.469 38.2842 126.162 36.5129 127.37 36.2532C129.492 35.7942 131.895 35.9705 134.057 36.4375C139.337 37.5789 141.342 43.0651 138.173 47.4287C137.156 48.8286 135.809 49.9942 134.407 51.4855L140.003 56.1008C138.775 58.1777 137.058 59.3931 134.93 58.4886C133.144 57.7281 131.685 56.2179 129.998 54.9796C128.744 57.0134 127.686 59.346 124.278 58.3944ZM131.286 50.0911C137.922 47.5512 139.843 45.0545 138.447 41.0138C137.242 37.5143 132.378 35.7767 127.602 37.2882C127.671 43.2239 127.465 49.2323 127.738 55.226L128.665 55.2421C128.757 53.5071 128.849 51.7722 128.961 49.6725L136.854 55.619L137.377 54.946L131.286 50.0911Z" fill="black"/>
<path d="M36.4067 58.2745C39.0406 51.8825 41.5695 45.4703 44.3603 39.1725C45.0208 37.6812 46.5589 36.5667 47.9359 35C48.5623 36.1696 48.9048 36.6838 49.1287 37.2437C51.3914 42.9264 53.6418 48.6136 55.8799 54.3053C56.5964 56.1264 55.91 57.7254 54.0717 58.4455C52.1706 59.1898 51.4364 58.0511 51.0502 56.483C50.6913 55.0227 49.8219 54.3672 48.2689 54.5704C47.5579 54.6633 46.8223 54.6148 46.1003 54.5798C44.3016 54.4923 42.7923 54.5543 41.71 56.5221C40.7315 58.3014 38.9533 59.3876 36.4067 58.2745ZM40.6469 55.0213L41.4985 55.8935C42.3078 50.2943 46.2819 51.8758 49.4808 51.7035C49.5613 51.7035 49.6432 51.7129 49.7223 51.7035C51.895 51.3912 53.4903 51.9148 53.9106 54.3551C53.9761 54.7346 54.4729 55.0415 54.7704 55.382L55.3368 55.0469L48.3603 37.1603L47.7776 37.2599C45.4039 43.1813 43.027 49.1017 40.6469 55.0213Z" fill="black"/>
<path d="M92.0587 58.9811C85.8451 59.0066 81.2487 54.2971 81.5026 48.1635C81.7728 41.5952 87.8881 35.5948 94.3023 35.5989C100.094 35.5989 104.605 39.7902 104.938 45.4756C105.321 52.1058 98.795 58.9582 92.0587 58.9811ZM94.1658 36.3136C91.5348 36.3341 89.0199 37.3846 87.1742 39.2339C85.3285 41.0833 84.3033 43.58 84.3241 46.1748C84.3449 48.7697 85.4101 51.2501 87.2852 53.0704C89.1603 54.8907 91.6918 55.9018 94.3228 55.8813C99.8062 55.8274 104.296 51.2619 104.165 45.874C104.121 43.2995 103.044 40.8472 101.17 39.055C99.295 37.2627 96.7763 36.2769 94.1658 36.3136Z" fill="black"/>
<path d="M109.546 36.3057C109.546 40.7272 109.475 45.1501 109.567 49.5689C109.655 53.7952 112.67 56.3297 116.654 55.6998C119.561 55.2394 121.448 52.9823 121.557 49.5204C121.671 45.9536 121.594 42.3868 121.601 38.8092C121.601 38.0554 121.601 37.3017 121.961 36.5628C121.961 41.6775 122.285 46.8096 121.834 51.8799C121.585 54.6916 119.252 56.7846 116.622 58.0714C111.846 60.4107 106.566 57.4657 106.27 52.1895C106.016 47.9909 106.021 43.7811 106.285 39.5831C106.372 38.2923 107.786 37.089 108.591 35.8454L109.546 36.3057Z" fill="black"/>
<path d="M36.255 55.4722C33.8395 58.8802 31.9234 59.2759 24.109 58.2853V55.6136C24.109 50.7802 24.2332 45.9428 24.0531 41.1161C23.9712 38.7243 24.9074 37.237 27.2943 35.9422C27.3721 36.9598 27.4812 37.7539 27.4853 38.5507C27.5031 43.4621 27.5509 48.3763 27.4676 53.2864C27.4403 54.9015 27.9139 55.5947 29.6402 55.4978C31.6928 55.3834 33.7549 55.4722 36.255 55.4722Z" fill="black"/>
<path d="M120.14 36.0673C120.14 41.2762 120.322 46.2482 120.059 51.196C119.938 53.472 117.962 54.6525 115.586 54.6821C113.285 54.7103 111.274 53.6672 111.133 51.5056C110.808 46.5255 111.03 41.5171 111.463 36.5115C111.463 40.4054 111.438 44.2992 111.48 48.1918C111.491 49.2901 111.544 50.4328 111.859 51.4719C112.342 53.0629 113.586 54.2863 115.248 53.717C116.093 53.4276 116.931 51.8798 116.999 50.8501C117.225 47.4529 117.1 44.0327 117.111 40.6207C117.119 38.1199 117.366 37.7363 120.14 36.0673Z" fill="black"/>
<path d="M35.5768 54.2836H28.8706V36.6352L29.4083 36.6137V38.9032C29.4083 43.1093 29.4656 47.3168 29.381 51.5217C29.3482 53.1476 29.8382 53.8636 31.5646 53.7102C32.9033 53.5904 34.2612 53.686 35.6109 53.686C35.6028 53.8879 35.5905 54.0857 35.5768 54.2836Z" fill="black"/>
<path d="M128.952 48.6668V37.9314C131.933 37.6622 134.753 37.537 136.688 40.1199C138.052 41.9356 138.016 44.0784 136.89 45.9547C135.148 48.8633 132.188 48.7987 128.952 48.6668ZM129.68 48.6493C131.524 47.7946 133.253 47.4824 134.058 46.4621C134.68 45.6734 134.503 43.8469 134.036 42.7486C133.335 41.0984 131.716 40.5062 129.68 40.8642V48.6493Z" fill="black"/>
<path d="M43.6123 50.3979C45.0698 46.8217 46.4332 43.4796 48.0858 39.4256L52.3643 50.3979H43.6123ZM46.9572 45.7678L46.3513 45.7045C45.8354 46.9872 45.3196 48.2713 44.7423 49.7115H48.3956L46.9572 45.7678Z" fill="black"/>
<path d="M102.854 46.0288C102.882 51.0291 99.3272 54.6754 94.3637 54.7386C89.3142 54.8019 85.5926 51.0964 85.6131 46.0221C85.6308 41.0811 89.2978 37.4254 94.2545 37.42C99.2112 37.4146 102.824 41.0339 102.854 46.0288ZM92.0846 40.2896C89.347 40.2896 87.5483 41.4081 86.8072 43.5832C85.1204 48.5243 88.595 53.7049 93.8574 54.0118C96.0737 54.1397 98.0293 53.534 99.0979 51.3939C101.535 46.504 97.6049 40.2937 92.0846 40.2896Z" fill="black"/>
</g>
<defs>
<clipPath id="clip0">
<rect width="140" height="93" fill="white"/>
</clipPath>
</defs>
</svg>
