<svg width="50" height="46" viewBox="0 0 50 46" fill="none" xmlns="http://www.w3.org/2000/svg">
<path d="M25.0324 4.58239C27.221 2.53017 29.9765 1.17559 32.9449 0.692609C40.751 -0.631087 48.7111 5.02488 49.7985 12.8366C50.6655 19.0769 48.7434 24.5002 44.1559 28.7758C38.2149 34.3107 32.0628 39.6206 26.0134 45.0383C25.3137 45.6661 24.7548 45.6529 24.0457 45.0175C18.1293 39.736 12.1331 34.5414 6.27382 29.1899C1.36317 24.7082 -0.885877 19.0598 0.321347 12.483C2.35937 1.37337 15.7377 -3.20473 24.4126 4.0964C24.6008 4.25713 24.8023 4.40274 25.0324 4.58239ZM32.9829 35.901C31.5894 35.5512 31.1198 35.0709 31.3232 34.0895C31.5338 33.0022 31.4092 31.8771 30.9658 30.8615C30.4354 29.5378 30.2795 28.1858 30.9658 26.8375C31.0732 26.6132 31.0941 26.3576 31.0248 26.1189C30.5742 24.8217 30.0742 23.5415 29.6141 22.2462C29.386 21.6013 29.0248 21.3404 28.2833 21.3574C26.5438 21.3971 24.8004 21.2874 23.059 21.2893C21.7833 21.2893 20.8936 20.705 20.5267 19.5439C20.1769 18.4415 20.0115 17.2747 19.7966 16.1401C19.2738 13.3812 20.4963 11.4316 22.7814 10.0455C26.7016 7.66849 29.386 7.55125 32.9639 10.1438C33.8251 10.7678 34.4544 10.7508 35.521 10.1173C34.8194 9.85826 34.3347 9.60298 33.8099 9.50654C32.7928 9.31744 31.9088 9.05081 31.2149 8.1488C30.8784 7.70271 30.4347 7.34777 29.9245 7.1165C29.4143 6.88523 28.854 6.78504 28.2947 6.82511C27.4411 6.87616 26.5837 6.9102 25.7415 7.04257C24.8993 7.17494 24.2491 7.06337 23.7187 6.36748C23.4923 6.10277 23.2373 5.86369 22.9582 5.65458C20.6084 3.68416 17.9031 2.65168 14.6997 2.68383C14.9088 3.30596 15.2073 3.81842 15.2396 4.36492C15.2852 5.15347 15.3271 6.029 15.0324 6.72677C14.5495 7.87839 11.27 9.21154 10.0248 8.93546C9.86842 8.90934 9.72127 8.84429 9.59701 8.74636C8.98865 8.17906 8.50956 8.44758 8.0761 8.96193C7.12553 10.0644 6.17496 11.1649 5.27002 12.292C5.08593 12.541 4.9789 12.8381 4.96203 13.1467C4.9012 14.026 4.87838 14.9091 4.89169 15.7941C4.89169 16.0286 5.02667 16.403 5.19587 16.4711C6.60272 17.0384 7.39739 18.2221 8.25291 19.3529C8.44302 19.6007 8.60081 19.9202 8.85557 20.064C10.6103 21.0435 12.3594 22.0419 14.1788 22.9118C15.0058 23.3089 15.5267 23.7968 15.3936 24.6912C15.2396 25.7086 14.9145 26.6976 14.7168 27.7168C14.5723 28.4619 14.3993 29.2296 14.4411 29.986C14.5058 31.0771 14.5856 32.1172 13.6388 32.9454C17.3708 36.266 21.0533 39.5412 24.7339 42.8145C24.8524 42.9032 24.9762 42.9847 25.1046 43.0585L32.9829 35.901ZM28.559 4.65046C30.2928 4.77716 31.6008 5.70185 32.8898 6.69841C33.347 7.04339 33.8735 7.28653 34.4335 7.41131C35.8822 7.73467 37.0153 8.44569 37.6788 9.78262C38.0476 10.5258 38.0153 11.2689 37.2852 11.8173C35.6845 13.0219 33.3251 12.9519 31.7491 11.7077C30.5438 10.7622 29.1065 10.1551 27.6103 10.3348C25.7603 10.5401 24.0472 11.4038 22.7871 12.7666C22.3461 13.2469 21.9183 13.9674 21.9221 14.5763C21.959 15.8631 22.1304 17.1427 22.4335 18.3942C22.502 18.7081 23.0628 19.1147 23.4164 19.1336C25.1886 19.2457 26.9655 19.264 28.7396 19.1884C29.8537 19.126 30.5951 19.508 31.0761 20.4214C31.4052 21.0977 31.6953 21.7922 31.9449 22.5015C32.2396 23.2579 32.3936 24.0918 32.8156 24.7706C33.4012 25.7161 33.3955 26.5576 33.0248 27.5466C32.7927 28.1228 32.7179 28.7497 32.808 29.3639C33.0932 30.7916 33.5362 32.2004 33.9392 33.6848C34.5457 33.6602 35.3537 33.8928 35.9183 33.0872C36.6407 32.0548 37.3366 30.9939 38.1445 30.0295C39.3042 28.6453 39.9848 27.2081 39.4069 25.3569C39.2532 24.7766 39.2369 24.1688 39.3594 23.5812C39.443 23.1198 39.6788 22.5676 40.0324 22.2916C41.4449 21.2004 41.9848 19.7917 41.8251 18.0387C41.5754 17.9278 41.3328 17.8015 41.0989 17.6605C40.3156 17.1291 40.4012 16.1836 41.2624 15.7922C41.4924 15.6882 41.7434 15.6315 41.9696 15.5218C42.521 15.2552 42.7415 14.8524 42.3499 14.3078C41.848 13.6176 41.8974 12.9614 42.4107 12.3166C42.6386 12.0087 42.9564 11.7783 43.3208 11.6568C43.6852 11.5353 44.0785 11.5286 44.4468 11.6377C45.2586 11.8268 45.7776 12.3184 45.8974 13.1826C45.9639 13.6705 46.0571 14.1546 46.1236 14.5423L47.8347 13.7008C47.1217 9.05459 44.6027 5.6092 40.2301 3.67849C36.2396 1.92554 32.2947 2.3113 28.559 4.65046ZM5.31184 18.8008C4.86127 19.5912 4.61222 20.2568 3.7396 20.081C2.9031 19.9127 2.84036 19.2244 2.84226 18.5285C2.85177 16.6072 2.84226 14.6879 2.87268 12.7685C2.88218 12.3506 2.97724 11.8381 3.23199 11.5337C4.51907 9.98496 5.81564 8.43245 7.22439 6.9953C8.00386 6.20297 9.05899 6.06682 10.1274 6.60764C10.3703 6.73895 10.6467 6.79617 10.9221 6.77216C13.3251 6.39396 13.6369 5.81342 12.7909 3.5934C12.5628 2.99206 12.3156 2.8578 11.6826 3.01286C6.25481 4.33656 2.19397 9.39875 2.10842 14.9999C2.00386 21.8566 5.69777 26.5671 10.9031 30.3623C11.3194 30.0843 11.7282 29.812 12.135 29.5378C12.2688 28.6184 12.4962 27.7149 12.8137 26.8413C12.9601 26.395 13.194 25.9506 13.213 25.4968C13.207 25.3352 13.1638 25.1772 13.0866 25.0349C13.0095 24.8926 12.9005 24.7699 12.7681 24.6761C11.7111 24.0842 10.5913 23.602 9.53618 23.0177C7.93121 22.1233 6.57898 20.8408 5.60462 19.2887C5.50005 19.1298 5.4088 18.9634 5.31184 18.8008ZM41.8784 28.095C45.1331 25.2755 47.1103 21.8056 47.8156 17.3882C47.6616 17.4947 47.5131 17.6089 47.3708 17.7305C46.3213 18.8008 45.7738 18.7365 44.9582 17.4355C44.7453 17.0951 44.5381 16.7472 44.1978 16.2025C44.1428 16.4099 44.1034 16.621 44.0799 16.8341C44.2263 19.3964 43.9164 21.7904 41.7833 23.6039C41.5362 23.8138 41.4221 24.3244 41.4506 24.6818C41.5419 25.7956 41.7244 26.9037 41.8784 28.095Z" fill="black"/>
</svg>
