<svg width="74" height="46" viewBox="0 0 74 46" fill="none" xmlns="http://www.w3.org/2000/svg">
<path d="M37.1592 45.7238V1.38232C44.0374 1.76886 50.9235 1.33787 57.4223 2.7236C68.0252 4.98097 75.2326 16.148 73.8213 26.4028C72.2958 37.5099 62.8641 45.6871 51.5236 45.7296C46.831 45.7354 42.1403 45.7238 37.1592 45.7238ZM45.8707 37.1601C48.3739 37.1601 50.7105 37.2819 53.0336 37.1369C61.4296 36.6112 67.278 28.4572 64.9588 20.3825C62.5757 12.1261 55.9491 8.94683 45.8669 10.7694L45.8707 37.1601Z" fill="black"/>
<path d="M9.66718 45.6024H0.686523V15.9976H9.66718V45.6024Z" fill="black"/>
<path d="M29.6613 27.0691H17.5715V17.8174H29.6613V27.0691Z" fill="black"/>
<path d="M5.03489 0.275124C6.40691 0.24578 7.73545 0.756297 8.73368 1.69645C9.7319 2.63661 10.3197 3.93097 10.3702 5.30009C10.4806 8.2513 8.11104 10.756 5.19751 10.7676C2.37883 10.7715 0.0480046 8.45423 0.00154296 5.59386C-0.0318654 4.22375 0.478389 2.89597 1.42116 1.89975C2.36392 0.903529 3.66282 0.319586 5.03489 0.275124Z" fill="black"/>
</svg>
