<svg width="140" height="93" viewBox="0 0 140 93" fill="none" xmlns="http://www.w3.org/2000/svg">
<g clip-path="url(#clip0)">
<path d="M62.3273 35.193L59.5475 38.9685C54.7894 36.1892 49.7541 35.1694 44.4414 35.909C42.0105 36.2432 38.5299 36.3719 38.5746 39.3663C38.6164 42.6166 42.2888 41.9831 44.5856 42.3433C47.1463 42.7439 49.7877 42.6036 52.3715 42.8756C54.1325 43.0532 55.8714 43.4074 57.5621 43.933C60.4789 44.8559 62.434 46.7653 62.6085 50.0085C62.7829 53.1489 61.344 55.4677 58.6333 56.9316C54.0094 59.4284 48.9875 59.3242 43.9757 58.8917C40.0193 58.5503 36.1711 57.7345 32.6804 54.9991L34.9874 51.4897C39.8348 54.3452 44.8653 55.5039 50.1756 55.0685C52.1062 54.9108 54.1319 54.4812 55.8463 53.6321C56.8368 53.1417 57.9081 51.5129 57.8187 50.4974C57.7293 49.5065 56.3264 48.0383 55.2955 47.8387C51.9418 47.1863 48.4915 47.0561 45.0859 46.6539C42.9232 46.3979 40.7273 46.1809 38.6222 45.6486C35.9548 44.9731 33.7878 43.528 33.5138 40.441C33.2255 37.2153 34.8605 35.0397 37.6302 33.6944C42.1273 31.5101 46.9632 31.4045 51.7198 32.161C55.1383 32.7064 58.4315 34.0502 62.3273 35.193Z" fill="black"/>
<path d="M140.001 50.3964H119.477C121.36 55.6517 128.471 56.4386 137.039 52.5879L138.988 55.1917C133.854 60.0261 122.407 60.3993 117.36 56.0596C112.819 52.1438 112.907 44.7853 117.542 40.8709C122.178 36.9566 131.239 36.8278 135.931 40.6887C138.79 43.0263 139.879 46.1754 140.001 50.3964ZM119.344 46.3837C124.555 46.5486 129.501 46.6933 135.092 46.3099C132.194 41.9602 128.748 41.6246 125.119 42.0571C122.623 42.3551 120.276 43.1058 119.344 46.3837Z" fill="black"/>
<path d="M12.1344 58.1527H7.46435V37.9387C9.20607 38.2164 10.8137 38.5347 12.4329 38.7039C13.1841 38.7849 13.9627 38.5593 14.7312 38.5217C18.2218 38.3394 21.7442 37.7984 25.1945 38.1022C28.7385 38.4074 30.8825 40.8361 31.0772 44.3715C31.3208 48.8384 31.1363 53.3285 31.1363 58.0818H26.0235C26.0235 54.6101 26.0654 51.2831 26.0135 47.956C25.9414 43.2504 24.3467 41.814 19.6319 42.1409C18.6987 42.226 17.7707 42.3617 16.8521 42.5474C13.8041 43.0927 12.0941 44.5104 12.4675 48.0443C12.7832 51.04 12.5093 54.0995 12.4675 57.1314C12.4675 57.4135 12.2887 57.6985 12.1344 58.1527Z" fill="black"/>
<path d="M79.2356 38.8556C82.8964 37.843 85.0433 38.6864 86.4448 42.0872C87.9818 45.8251 90.1315 49.3084 92.3563 53.5453C94.6992 49.2331 96.9701 45.5285 98.7608 41.5997C100.11 38.6271 101.979 37.8532 105.292 38.9381C103.744 41.7241 102.244 44.4263 100.743 47.127C98.4124 51.3229 96.0805 55.5179 93.7476 59.7119C91.8257 63.1735 91.8271 63.1749 87.7006 62.8726C87.6357 62.7019 87.4584 62.4386 87.516 62.3649C90.3608 59.1116 88.9074 56.2069 87.0575 53.094C84.3383 48.5417 81.929 43.8057 79.2356 38.8556Z" fill="black"/>
<path d="M66.2909 42.585L63.1059 42.0064V38.8934L66.0732 38.1398C66.2001 36.7077 66.327 35.2915 66.4682 33.7076H70.1593C70.6798 35.2727 70.7548 37.5033 71.8318 38.2179C73.0805 39.0482 75.2072 38.5491 77.1147 38.633V42.1047L70.8687 42.4461C70.8687 46.0075 70.7389 49.5212 70.9768 53.0059C71.0244 53.7031 72.397 54.6694 73.2939 54.8575C74.4545 55.1005 75.745 54.6868 77.3468 54.5175C77.6352 55.5475 77.9625 56.6758 78.4369 58.3422C75.8416 58.5968 73.5966 59.0828 71.3834 58.9729C67.9764 58.8036 66.3933 56.9564 66.3096 53.4442C66.226 49.9103 66.2909 46.3677 66.2909 42.585Z" fill="black"/>
<path d="M0 30.0202H4.60087V37.4511C4.60087 43.2016 4.60087 48.9511 4.60087 54.6997C4.60087 58.6053 4.36009 58.7775 0.00144183 57.911L0 30.0202Z" fill="black"/>
<path d="M107.465 30H111.775V58.1584H107.465V30Z" fill="black"/>
</g>
<defs>
<clipPath id="clip0">
<rect width="140" height="93" fill="white"/>
</clipPath>
</defs>
</svg>
