<svg width="16" height="16" viewBox="0 0 16 16" fill="none" xmlns="http://www.w3.org/2000/svg">
<path d="M8 0C3.58187 0 0 3.58171 0 8C0 12.4183 3.58187 16 8 16C12.4181 16 16 12.4183 16 8C16 3.58171 12.4181 0 8 0ZM8.92055 10.6572C8.18054 10.6572 7.48456 10.2572 7.24624 9.80297C7.24624 9.80297 6.84816 11.3817 6.76452 11.6863C6.46776 12.7633 5.59484 13.8407 5.52692 13.9289C5.47961 13.9903 5.37502 13.9712 5.36421 13.8896C5.34572 13.7525 5.12278 12.3937 5.385 11.2856C5.51611 10.7291 6.26611 7.55134 6.26611 7.55134C6.26611 7.55134 6.04775 7.11382 6.04775 6.46695C6.04775 5.45129 6.63636 4.69312 7.36933 4.69312C7.99247 4.69312 8.29332 5.16108 8.29332 5.72203C8.29332 6.3486 7.89459 7.28552 7.68884 8.1537C7.51681 8.88061 8.05303 9.47364 8.76996 9.47364C10.0685 9.47364 10.9424 7.80604 10.9424 5.82989C10.9424 4.32827 9.93146 3.20376 8.09133 3.20376C6.01305 3.20376 4.71701 4.754 4.71701 6.48593C4.71701 7.08272 4.89346 7.5042 5.16943 7.82977C5.29596 7.97954 5.31396 8.03977 5.26797 8.21164C5.23474 8.33784 5.15994 8.64131 5.12818 8.76129C5.08252 8.93512 4.94208 8.99699 4.78478 8.93299C3.82789 8.54228 3.38169 7.49373 3.38169 6.31505C3.38169 4.36837 5.02326 2.03409 8.27941 2.03409C10.8959 2.03409 12.618 3.92724 12.618 5.95986C12.6181 8.64884 11.1232 10.6572 8.92055 10.6572Z" fill="#212121"/>
</svg>
