<svg width="50" height="50" viewBox="0 0 50 50" fill="none" xmlns="http://www.w3.org/2000/svg">
<path d="M50 25.0292C50 38.741 38.6775 50.011 24.9242 50C11.2294 49.9909 0 38.6661 0 24.8776C0 11.2024 11.3481 -0.0109497 25.1634 8.02407e-06C38.7414 0.0109657 50.0018 11.3577 50 25.0292ZM25.0411 2.13859C12.537 2.07284 2.22251 12.3201 2.14033 24.8886C2.05815 37.2964 12.3105 47.7939 24.5608 47.8486C37.4338 47.9053 47.7538 37.8516 47.8578 25.1479C47.9638 12.5521 37.7041 2.20616 25.0411 2.13859Z" fill="black"/>
<path d="M24.939 43.7226C14.9733 43.6952 6.73525 35.8056 6.29148 25.8615C6.28052 25.6259 6.28052 25.3903 6.28052 25.1547C6.28052 24.4699 6.56723 23.9877 7.29042 23.9676C8.0136 23.9476 8.31492 24.3786 8.38615 25.0799C8.49754 26.2779 8.56877 27.4924 8.82626 28.6612C10.6415 36.843 18.2441 42.2944 26.6958 41.5237C34.7695 40.7932 41.238 33.9446 41.6032 25.7538C41.6142 25.52 41.6288 25.2844 41.6379 25.0488C41.6635 24.3895 41.994 23.9676 42.6624 23.9658C43.371 23.9658 43.7928 24.4096 43.7125 25.1018C43.5134 26.8185 43.4221 28.5717 42.9583 30.2263C40.6883 38.2528 33.2866 43.7445 24.939 43.7226Z" fill="black"/>
<path d="M31.9934 21.0475C31.1588 21.064 30.7041 20.5179 30.8118 19.7472C30.8935 18.9873 31.0265 18.2337 31.2099 17.4918C31.4583 16.6133 31.2246 15.9906 30.5288 15.4317C29.9721 14.9967 29.4666 14.4998 29.0221 13.9506C28.7646 13.6237 28.5108 13.074 28.6167 12.7379C28.7226 12.4019 29.2486 12.0841 29.6467 11.9873C30.5598 11.7627 31.5076 11.7134 32.4262 11.5162C32.7426 11.4331 33.016 11.2335 33.1914 10.9573C33.6425 10.1665 33.962 9.29906 34.4405 8.52837C34.656 8.18137 35.1235 7.79785 35.4851 7.79785C35.8467 7.79785 36.2521 8.19598 36.5498 8.50828C36.7766 8.78051 36.9367 9.10195 37.0173 9.44699C37.5013 11.1418 38.6262 11.896 40.3629 11.8412C40.746 11.8496 41.1267 11.9036 41.497 12.002C42.538 12.2266 42.8156 13.1105 42.0741 13.8958C41.5697 14.4692 41.0201 15.0011 40.4305 15.4865C39.7219 16.0344 39.5831 16.6517 39.7968 17.4753C39.9797 18.1504 40.0923 18.8426 40.1328 19.5409C40.1511 19.9627 40.0634 20.591 39.7895 20.7699C39.4644 20.9818 38.849 20.927 38.4308 20.7809C37.7688 20.5351 37.1395 20.2088 36.5571 19.8093C35.8376 19.3327 35.2002 19.2925 34.4679 19.7965C33.8693 20.1701 33.2464 20.5032 32.6033 20.7937C32.4047 20.8891 32.2011 20.9739 31.9934 21.0475ZM37.8172 18.0141C37.0867 16.2389 37.4757 14.871 39.0755 13.8136C37.1963 13.8483 36.0111 13.0685 35.4924 11.2094C35.0012 13.0922 33.7813 13.8209 31.9222 13.7241C32.5522 14.4638 33.2571 14.966 33.4671 15.6271C33.6772 16.2882 33.4142 17.1375 33.3539 17.9374C34.1246 17.616 34.8149 17.0973 35.5162 17.1009C36.2174 17.1046 36.9023 17.6233 37.8172 18.0141Z" fill="black"/>
<path d="M14.7576 7.48779C15.1722 7.8914 15.5429 8.13064 15.7456 8.47216C16.1667 9.18033 16.533 9.9197 16.8413 10.6838C17.0952 11.3175 17.5061 11.5659 18.1598 11.6262C19.0087 11.7041 19.8529 11.8261 20.6892 11.9914C21.7502 12.196 22.0333 13.0872 21.2882 13.8725C20.6435 14.5573 19.9148 15.1655 19.2976 15.8814C19.0554 16.1819 18.9314 16.5606 18.9488 16.9461C19.02 17.7935 19.2811 18.6245 19.3396 19.4719C19.3706 19.9175 19.2757 20.5969 18.9889 20.7831C18.6474 21.0005 17.99 20.9219 17.5554 20.7539C16.7372 20.4361 15.9958 19.9266 15.1813 19.5705C14.8737 19.4499 14.5319 19.4499 14.2243 19.5705C13.3934 19.9357 12.6228 20.4526 11.7845 20.8014C11.3974 20.9621 10.76 21.0534 10.5062 20.8452C10.2048 20.6042 10.0569 19.9924 10.0825 19.554C10.1336 18.6793 10.3948 17.8173 10.4696 16.9406C10.4897 16.5573 10.3689 16.1799 10.13 15.8796C9.50905 15.1582 8.77857 14.5573 8.13209 13.8798C7.4016 13.1036 7.67919 12.196 8.72561 11.9969C9.67889 11.8143 10.6523 11.7339 11.5982 11.5257C11.9426 11.432 12.2392 11.2124 12.4292 10.9102C12.9003 10.0994 13.2437 9.2118 13.7203 8.40276C13.9157 8.06307 14.323 7.85305 14.7576 7.48779ZM18.2767 13.8232C16.3975 13.8542 15.2361 13.0452 14.7046 11.2171C14.2061 13.089 12.9843 13.8195 11.1399 13.7264C11.7644 14.4569 12.4639 14.9719 12.6775 15.6348C12.8912 16.2978 12.6209 17.1196 12.5607 17.8739L17.0002 17.8556C16.2533 16.1973 16.7117 14.8824 18.2767 13.8177V13.8232Z" fill="black"/>
</svg>
