<svg width="140" height="93" viewBox="0 0 140 93" fill="none" xmlns="http://www.w3.org/2000/svg">
<path fill-rule="evenodd" clip-rule="evenodd" d="M31.7701 59.0437C34.2323 62.0855 38.0352 64.3123 42.011 64.3123C46.257 64.3123 50.0854 61.8988 52.6202 58.6014C55.2051 55.2168 56.4732 50.9454 56.4732 46.7124C56.4732 42.2929 55.0824 37.813 52.2883 34.3543C49.8631 31.3518 46.0849 29.0988 42.1461 29.0988C37.8624 29.0988 34.01 31.4745 31.4498 34.7974C28.8533 38.182 27.5975 42.4534 27.5975 46.6994C27.5975 51.1182 28.9644 55.5865 31.7701 59.0437ZM42.0358 29.6026C48.6452 29.6026 50.3927 41.8125 50.3927 46.6991C50.3927 51.5857 48.6452 63.8065 42.0358 63.8072C35.414 63.8072 33.6782 51.5973 33.6782 46.6991C33.6782 41.8002 35.4017 29.6026 42.0358 29.6026Z" fill="black"/>
<path d="M14.0344 29.8251H2.05835V30.1686H5.20979L17.5795 63.9913L28.2134 30.1686H31.0692V29.8251H24.6073V30.1686H27.5735L20.0286 54.6372L11.0929 30.1686H14.0344V29.8251Z" fill="black"/>
<path d="M82.69 40.9884V29.2339H82.4213C81.5969 29.8491 80.6367 30.5507 79.5654 30.5507C78.7048 30.5507 77.831 30.2681 77.0306 29.9725L76.3283 29.7016C75.3681 29.3196 74.3469 29 73.3127 29C70.6667 29 68.1806 30.1686 66.1251 31.7571C61.5465 35.2891 59.3923 41.3327 59.3923 46.9826C59.3923 54.7113 64.045 64.0283 72.7832 64.0283C74.6905 64.0283 76.3406 63.4756 78.0642 62.7123L78.8275 62.2939C79.6751 61.8262 80.6229 61.4812 81.5962 61.4812C82.937 61.4812 83.9836 62.2075 84.6489 63.3151H84.8813V49.7266H87.5156V49.3707H76.2535V49.7266H79.3301V58.8113C79.3301 59.4141 79.3054 60.0039 78.9851 60.5333C77.7424 62.5648 75.2555 63.7465 72.9176 63.7465C69.9753 63.7465 68.3876 62.3564 67.2923 59.5252C65.7293 55.4884 65.385 51.0456 65.385 46.7371C65.385 41.9246 66.0249 29.3087 73.065 29.3087C76.13 29.3087 78.4811 31.9909 79.9576 34.379C81.2004 36.4221 81.9143 38.6744 82.4191 40.9884H82.69Z" fill="black"/>
<path d="M98.063 29.8251H86.0514V30.1686H89.3364V55.0555C89.3364 61.235 95.2951 63.8562 100.698 63.8562C105.473 63.8562 110.569 61.4804 110.569 56.1152V30.1686H116.526V62.9701H113.708V63.3151H137.942V50.5764H137.671C137.61 51.8075 137.511 53.0502 137.302 54.2689C136.921 56.4479 135.824 58.4663 134.25 60.0169C132.403 61.8378 129.807 62.9701 127.197 62.9701H122.163V46.3297C122.766 46.2803 123.357 46.2433 123.959 46.2433C127.788 46.2433 129.227 49.739 129.757 53.0001H130.065V39.3506H129.757C129.572 42.9451 128.477 45.8496 124.256 45.8496C123.553 45.8496 122.851 45.8002 122.163 45.7268V30.1686H125.523C128.636 30.1686 131.665 30.4148 133.892 32.938C136.095 35.4365 136.711 38.7231 137.068 41.9232H137.302V29.8244H106.297V30.1686H110.062V56.0172C110.062 60.0671 106.727 62.8234 102.764 62.8234C99.0842 62.8234 94.8753 60.3365 94.8753 56.251V30.1694H98.063V29.8251Z" fill="black"/>
</svg>
