<svg width="140" height="93" viewBox="0 0 140 93" fill="none" xmlns="http://www.w3.org/2000/svg">
<path d="M49.3713 64.5935C46.4405 64.5935 43.5949 64.7263 40.7789 64.4985C40.0879 64.4435 39.1449 63.314 38.906 62.4996C37.5869 57.9606 36.4531 53.3665 35.2452 48.7934C35.0155 47.9296 34.7358 47.0848 33.9484 46.1831C32.8628 50.3595 31.7679 54.5359 30.6952 58.7218C29.1891 64.6068 29.1965 64.6447 23.3552 64.5935C18.1679 64.5479 19.3388 65.3623 17.9827 60.3582C15.3446 50.5228 12.7898 40.6589 10.2018 30.8064C10.0424 30.2008 9.94796 29.58 9.7627 28.7315H19.5352C21.1043 34.8935 22.6846 41.1012 24.2667 47.3108L24.8429 47.2766C26.2508 41.8549 27.7755 36.4521 29.002 30.9848C29.4651 28.9194 30.3673 28.4638 32.2607 28.4828C39.1801 28.5473 39.1709 28.4828 40.9679 35.4175C42.0128 39.4382 43.0984 43.4495 44.7528 47.4607C45.994 42.5459 47.1852 37.6158 48.4821 32.7199C49.7789 27.824 48.4821 28.61 53.8361 28.5264C55.3385 28.5037 56.841 28.5264 58.7195 28.5264C55.5701 40.6855 52.4966 52.5369 49.3713 64.5935Z" fill="black"/>
<path d="M74.361 46.041C72.9271 51.571 71.521 56.7364 70.2742 61.9398C69.8333 63.7736 69.2071 64.626 67.1248 64.5975C59.5791 64.514 59.8515 64.5197 57.5431 57.2395C55.6535 51.2729 55.3849 45.5873 57.5431 39.6967C58.5565 36.9365 59.1123 34.0016 60.4554 31.1237C61.8313 36.5087 63.2084 41.8931 64.5867 47.2769L65.1203 47.3376C65.3852 46.4378 65.676 45.5455 65.9132 44.64C67.2007 39.8068 68.19 34.8616 69.8481 30.165C71.2246 26.2885 74.8149 29.1532 77.303 28.4299C78.6128 28.0502 79.7836 28.3407 80.2264 30.2276C81.551 35.8715 83.0923 41.4641 85.1821 47.1345C85.7873 44.7679 86.3931 42.4006 86.9995 40.0327C87.3811 38.533 87.7572 37.032 88.1277 35.5298C90.0989 27.6174 90.8436 27.1371 99.1544 28.7336C98.6375 30.7573 98.1318 32.7696 97.6075 34.778C95.2121 43.9319 92.7685 53.0707 90.4527 62.2455C89.9914 64.0698 89.23 64.6678 87.357 64.6583C79.7725 64.6165 79.7799 64.6887 77.8662 57.2964C76.9547 53.775 76.0136 50.2611 75.0687 46.7472C75.0317 46.601 74.8446 46.5137 74.361 46.041Z" fill="black"/>
<path d="M97.363 65.0002C97.0518 52.7368 96.3681 41.2441 100.585 30.2431C100.842 29.5729 101.717 28.6712 102.287 28.6845C107.343 28.8003 112.508 28.4947 117.423 29.4704C127.112 31.3859 131.781 39.9114 129.782 50.8043C128.44 58.1168 124.385 62.8342 117.234 63.8384C110.765 64.7477 104.16 64.6357 97.363 65.0002ZM107.726 55.5084C111.919 55.4173 116.041 56.1614 118.596 52.0363C120.448 49.054 120.202 42.7001 118.151 40.3158C115.296 36.9937 111.5 37.715 107.726 37.679V55.5084Z" fill="black"/>
</svg>
