<svg width="38" height="24" viewBox="0 0 38 24" fill="none" xmlns="http://www.w3.org/2000/svg">
<path d="M0 10.1167V0H39V24H0V11.7864" fill="#016FD0"/>
<path d="M16.8992 8.0191L16.2426 9.73558L15.5649 8.0191H11.2543V10.3942L10.1195 8.0191H6.65299L3 15.6364H7.12515L7.65346 14.4356H9.07295L9.61027 15.6364H21.2389V8.0191H16.8992ZM35.5 8H30.8626L29.8812 9.1334L28.9278 8.00546H20.0359V15.6227H28.8677L29.8351 14.4702L30.7874 15.6227H35.487L32.1898 11.8023L35.5 8Z" fill="white"/>
<path d="M33.3334 9.09082H31.4688L29.9761 10.7966L28.4854 9.09082H26.5481L29.0497 11.8503L26.606 14.5454H28.5158L29.928 12.8666L31.3746 14.5454H33.3128L30.8643 11.8198L33.3334 9.09082ZM26.4107 10.308V9.09082H21.3919V14.5419H26.4107V13.3587H22.9455V12.3884H26.3303V11.2426H22.9455V10.3106L26.4107 10.308ZM17.911 9.09082L16.5213 12.6127L15.0974 9.09865L12.6439 9.09082V14.541H14.1817V10.5244L15.8167 14.541H17.171L18.8011 10.5244V14.541H20.3399V9.09082H17.911ZM9.82046 9.09169H7.81648L5.16675 14.5419H6.893L7.38369 13.4508H10.2199L10.7106 14.5419H12.4702L9.82046 9.09169ZM7.92738 12.2676L8.7959 10.3601L9.6605 12.2676H7.92738Z" fill="#016FD0"/>
</svg>
