<svg width="38" height="24" viewBox="0 0 38 24" fill="none" xmlns="http://www.w3.org/2000/svg">
<path d="M0 0H38V24H0V0Z" fill="white"/>
<path d="M10 12C10 14.2091 11.3431 16 13 16V8C11.3431 8 10 9.79086 10 12Z" fill="#3086C8"/>
<path d="M17.5 12C17.5 14.2091 16.1569 16 14.5 16V8C16.1569 8 17.5 9.79086 17.5 12Z" fill="#3086C8"/>
<path d="M15 18.9291C15.3266 18.9758 15.6605 19 16 19H22C25.866 19 29 15.866 29 12C29 8.13401 25.866 5 22 5H16C15.6605 5 15.3266 5.02417 15 5.07089C18.3923 5.55612 21 8.47353 21 12C21 15.5265 18.3923 18.4439 15 18.9291Z" fill="#3086C8"/>
<path d="M0 0V-1H-1V0H0ZM38 0H39V-1H38V0ZM38 24V25H39V24H38ZM0 24H-1V25H0V24ZM0 1H38V-1H0V1ZM37 0V24H39V0H37ZM38 23H0V25H38V23ZM1 24V0H-1V24H1Z" fill="#EDDEDF"/>
</svg>
