<svg width="38" height="24" viewBox="0 0 38 24" fill="none" xmlns="http://www.w3.org/2000/svg">
<path d="M0 0H38V24H0V0Z" fill="white"/>
<path d="M9 23C23.4 21.4 33.5 15 37 12V23H21.5H9Z" fill="#E46E26"/>
<g clip-path="url(#clip0)">
<path d="M5.76645 12.3656C5.43671 12.6777 5.00837 12.8139 4.33028 12.8139H4.04863V9.08465H4.33028C5.00837 9.08465 5.41985 9.21183 5.76645 9.54074C6.12939 9.8795 6.34774 10.4044 6.34774 10.9446C6.34774 11.486 6.12939 12.027 5.76645 12.3656ZM4.5405 8.12917H3V13.7686H4.53237C5.34723 13.7686 5.93559 13.5671 6.45208 13.1175C7.0658 12.5851 7.42874 11.7827 7.42874 10.9528C7.42874 9.28852 6.24246 8.12917 4.5405 8.12917Z" fill="#201D1C"/>
<path d="M7.91162 13.7686H8.96108V8.12917H7.91162V13.7686Z" fill="#201D1C"/>
<path d="M11.5273 10.2933C10.8976 10.049 10.7126 9.8879 10.7126 9.58321C10.7126 9.22805 11.0421 8.95814 11.4944 8.95814C11.8089 8.95814 12.0673 9.09352 12.3407 9.41487L12.8898 8.66119C12.4386 8.24748 11.8987 8.03596 11.3088 8.03596C10.3569 8.03596 9.63079 8.72889 9.63079 9.65186C9.63079 10.4288 9.96889 10.8266 10.9545 11.1984C11.3653 11.3503 11.5744 11.4515 11.68 11.5196C11.8897 11.6631 11.9946 11.8662 11.9946 12.1031C11.9946 12.56 11.648 12.8986 11.1798 12.8986C10.6793 12.8986 10.2761 12.6362 10.0345 12.1464L9.35645 12.8306C9.83997 13.5746 10.4207 13.9043 11.2192 13.9043C12.3098 13.9043 13.0748 13.1442 13.0748 12.0525C13.0748 11.1565 12.7211 10.7509 11.5273 10.2933Z" fill="#201D1C"/>
<path d="M13.4058 10.9525C13.4058 12.6102 14.6475 13.8955 16.2456 13.8955C16.6974 13.8955 17.0842 13.8024 17.5614 13.5668V12.272C17.1418 12.7121 16.7702 12.8896 16.2944 12.8896C15.2375 12.8896 14.4873 12.0864 14.4873 10.9444C14.4873 9.86168 15.2612 9.00758 16.2456 9.00758C16.7461 9.00758 17.125 9.1948 17.5614 9.64212V8.34787C17.1007 8.10291 16.7219 8.00146 16.2704 8.00146C14.6804 8.00146 13.4058 9.31281 13.4058 10.9525Z" fill="#201D1C"/>
<path d="M25.8825 11.917L24.4477 8.12901H23.3013L25.5844 13.9131H26.1492L28.4735 8.12901H27.3359L25.8825 11.917Z" fill="#201D1C"/>
<path d="M28.9482 13.7686H31.9245V12.8139H29.9968V11.2916H31.8534V10.3364H29.9968V9.08465H31.9245V8.12917H28.9482V13.7686Z" fill="#201D1C"/>
<path d="M33.9739 10.7255H33.6673V9.01744H33.9905C34.6441 9.01744 34.9994 9.30445 34.9994 9.8533C34.9994 10.4202 34.6441 10.7255 33.9739 10.7255ZM36.0794 9.79406C36.0794 8.7383 35.3855 8.12917 34.1753 8.12917H32.6191V13.7686H33.6673V11.5031H33.8042L35.2568 13.7686H36.5474L34.8537 11.3928C35.6441 11.2243 36.0794 10.6576 36.0794 9.79406Z" fill="#201D1C"/>
<circle cx="21" cy="11" r="3" fill="#E67225"/>
</g>
<path d="M0 0V-1H-1V0H0ZM38 0H39V-1H38V0ZM38 24V25H39V24H38ZM0 24H-1V25H0V24ZM0 1H38V-1H0V1ZM37 0V24H39V0H37ZM38 23H0V25H38V23ZM1 24V0H-1V24H1Z" fill="#EDDEDF"/>
<defs>
<clipPath id="clip0">
<rect width="34" height="6" fill="white" transform="translate(3 8)"/>
</clipPath>
</defs>
</svg>
