<svg width="16" height="16" viewBox="0 0 16 16" fill="none" xmlns="http://www.w3.org/2000/svg">
<g clip-path="url(#clip0)">
<path d="M0.0165777 4.70404C0.05406 3.8539 0.191537 3.26944 0.388473 2.76299C0.591636 2.22541 0.904193 1.74412 1.31369 1.34401C1.71379 0.937683 2.19826 0.621948 2.7296 0.421957C3.23898 0.22502 3.82038 0.0875415 4.67052 0.0500586C5.527 0.00940124 5.7989 0 7.97118 0C10.1435 0 10.4154 0.00940124 11.2687 0.0468842C12.1188 0.0843671 12.7033 0.221967 13.2096 0.418783C13.7473 0.621948 14.2286 0.934509 14.6287 1.34401C15.035 1.74412 15.3506 2.22858 15.5507 2.75994C15.7476 3.26944 15.8851 3.85073 15.9226 4.70087C15.9633 5.55736 15.9727 5.82926 15.9727 8.00156C15.9727 10.1739 15.9633 10.4458 15.9258 11.2991C15.8883 12.1492 15.7507 12.7337 15.5538 13.2401C15.3506 13.7777 15.035 14.259 14.6287 14.6591C14.2286 15.0654 13.7441 15.3812 13.2127 15.5812C12.7033 15.7781 12.122 15.9156 11.2717 15.9531C10.4185 15.9907 10.1465 16 7.97423 16C5.80195 16 5.53005 15.9907 4.67674 15.9531C3.82661 15.9156 3.24215 15.7781 2.73583 15.5812C1.66056 15.1654 0.810426 14.3153 0.394699 13.2401C0.197886 12.7306 0.0602875 12.1492 0.0228043 11.2991C-0.014678 10.4458 -0.0240793 10.1739 -0.0240793 8.00156C-0.0240793 5.82926 -0.0209045 5.55736 0.0165777 4.70404ZM1.4574 11.2366C1.49183 12.018 1.62308 12.4399 1.73247 12.7212C2.00132 13.4183 2.55452 13.9715 3.25155 14.2403C3.53285 14.3497 3.95786 14.481 4.7362 14.5153C5.58011 14.5529 5.83321 14.5622 7.968 14.5622C10.1028 14.5622 10.3591 14.5529 11.1999 14.5153C11.9813 14.481 12.4033 14.3497 12.6846 14.2403C13.0314 14.1121 13.3472 13.909 13.6034 13.6433C13.8691 13.3838 14.0723 13.0713 14.2005 12.7244C14.3099 12.4431 14.4411 12.018 14.4754 11.2397C14.513 10.3958 14.5223 10.1426 14.5223 8.00779C14.5223 5.87297 14.513 5.6167 14.4754 4.77596C14.4411 3.99455 14.3099 3.5726 14.2005 3.29129C14.0723 2.9443 13.8691 2.62869 13.6003 2.37229C13.3409 2.10661 13.0284 1.90345 12.6814 1.77537C12.4001 1.66597 11.975 1.53472 11.1967 1.50029C10.3528 1.46281 10.0996 1.45341 7.96495 1.45341C5.82698 1.45341 5.57388 1.46281 4.73303 1.50029C3.95163 1.53472 3.52968 1.66597 3.24838 1.77537C2.90151 1.90345 2.58578 2.10661 2.32951 2.37229C2.06383 2.63174 1.86067 2.9443 1.73247 3.29129C1.62308 3.5726 1.49183 3.99761 1.4574 4.77596C1.41991 5.61987 1.41051 5.87297 1.41051 8.00779C1.41051 10.1426 1.41991 10.3927 1.4574 11.2366Z" fill="black"/>
<path d="M7.97039 3.89062C10.2395 3.89062 12.0806 5.73156 12.0806 8.0008C12.0806 10.27 10.2395 12.111 7.97039 12.111C5.70115 12.111 3.86021 10.27 3.86021 8.0008C3.86021 5.73156 5.70115 3.89062 7.97039 3.89062ZM7.97039 10.667C9.44248 10.667 10.6366 9.47301 10.6366 8.0008C10.6366 6.52859 9.44248 5.33463 7.97039 5.33463C6.49818 5.33463 5.30422 6.52859 5.30422 8.0008C5.30422 9.47301 6.49818 10.667 7.97039 10.667Z" fill="black"/>
<path d="M2.73819 3.72811C2.73819 4.25801 3.16786 4.68767 3.69789 4.68767C4.2278 4.68767 4.65747 4.25801 4.65747 3.72811C4.65747 3.19809 4.2278 2.76855 3.69789 2.76855C3.16786 2.76855 2.73819 3.19809 2.73819 3.72811Z" fill="black"/>
</g>
<defs>
<clipPath id="clip0">
<rect width="16" height="16" fill="white" transform="matrix(-1 0 0 1 16 0)"/>
</clipPath>
</defs>
</svg>
