<svg width="38" height="24" viewBox="0 0 38 24" fill="none" xmlns="http://www.w3.org/2000/svg">
<path d="M0 0H38V24H0V0Z" fill="white"/>
<path d="M30.0002 12C30.0002 15.841 26.9217 19 23.1002 19C19.314 19 16.2002 15.841 16.2002 12C16.2002 8.15897 19.2787 5 23.0648 5C26.9217 5 30.0002 8.15897 30.0002 12Z" fill="#F9B50B"/>
<path d="M20.8 12C20.8 15.841 17.7215 19 13.9 19C10.1138 19 7 15.841 7 12C7 8.15897 10.0785 5 13.8646 5C17.7215 5 20.8 8.15897 20.8 12Z" fill="#C8191C"/>
<path d="M0 0V-1H-1V0H0ZM38 0H39V-1H38V0ZM38 24V25H39V24H38ZM0 24H-1V25H0V24ZM0 1H38V-1H0V1ZM37 0V24H39V0H37ZM38 23H0V25H38V23ZM1 24V0H-1V24H1Z" fill="#EDDEDF"/>
</svg>
