<svg width="38" height="24" viewBox="0 0 38 24" fill="none" xmlns="http://www.w3.org/2000/svg">
<path d="M0 0H38V24H0V0Z" fill="white"/>
<path d="M16.1063 17.5823L16.3134 16.1225H15.8301H13.4141L15.0708 5.48651C15.0708 5.48651 15.0708 5.41699 15.1398 5.41699H15.2089H19.2817C20.5933 5.41699 21.5597 5.69506 22.0429 6.25119C22.25 6.52925 22.3881 6.80731 22.4571 7.08538C22.5261 7.43296 22.5261 7.78054 22.4571 8.26715V8.54522L22.6642 8.68425C22.8713 8.75376 23.0094 8.8928 23.1474 9.03183C23.3545 9.24038 23.4926 9.51844 23.4926 9.86602C23.5616 10.2136 23.5616 10.6307 23.4235 11.1173C23.2855 11.6734 23.1474 12.0905 22.9403 12.5076C22.7332 12.8552 22.4571 13.1333 22.181 13.4113C21.9049 13.6199 21.4907 13.7589 21.1455 13.898C20.7313 13.9675 20.3172 14.037 19.8339 14.037H19.4888C19.2817 14.037 19.0746 14.1065 18.8675 14.2455C18.7294 14.3846 18.5914 14.5931 18.5224 14.8017V14.9407L18.1082 17.5128V17.5823V17.6518C18.1082 17.6518 18.1082 17.6518 18.0391 17.6518H16.1063V17.5823Z" fill="#263577"/>
<path d="M22.9404 8.26758C22.9404 8.33709 22.9404 8.40661 22.8713 8.47613C22.3191 11.2568 20.5243 12.1605 18.1773 12.1605H17.0037C16.7276 12.1605 16.4515 12.369 16.4515 12.6471L15.8302 16.54L15.6921 17.6522C15.6921 17.8608 15.8302 17.9998 15.9683 17.9998H18.1082C18.3843 17.9998 18.5914 17.7913 18.5914 17.5827V17.4437L19.0056 14.9411V14.8021C19.0747 14.524 19.2817 14.385 19.4888 14.385H19.834C21.9049 14.385 23.4926 13.5508 23.9068 11.1177C24.1139 10.075 23.9758 9.2408 23.4926 8.68468C23.3546 8.54564 23.1475 8.40661 22.9404 8.26758Z" fill="#2199D6"/>
<path d="M22.3883 8.05816C22.3193 8.05816 22.2503 7.98864 22.1122 7.98864C22.0432 7.98864 21.9051 7.91912 21.8361 7.91912C21.4909 7.84961 21.1458 7.84961 20.8006 7.84961H17.6252C17.5562 7.84961 17.4871 7.84961 17.4181 7.91912C17.28 7.98864 17.142 8.12767 17.142 8.2667L16.4517 12.5767V12.7157C16.5207 12.4377 16.7278 12.2291 17.0039 12.2291H18.1774C20.5245 12.2291 22.3193 11.2559 22.8715 8.54477C22.8715 8.47525 22.8715 8.40574 22.9406 8.33622C22.8025 8.26671 22.6644 8.19719 22.5264 8.12767C22.4573 8.05816 22.3883 8.05816 22.3883 8.05816Z" fill="#252C5E"/>
<path d="M17.1419 8.26725C17.1419 8.12822 17.2799 7.98919 17.418 7.91967C17.487 7.91967 17.556 7.85016 17.6251 7.85016H20.8005C21.1456 7.85016 21.5598 7.85016 21.8359 7.91967C21.905 7.91967 22.043 7.91967 22.1121 7.98919C22.1811 7.98919 22.2501 8.05871 22.3882 8.05871C22.4572 8.05871 22.4572 8.05871 22.5263 8.12822C22.6643 8.19774 22.8024 8.26725 22.9404 8.33677C23.0785 7.29403 22.9404 6.59887 22.3882 5.97322C21.7669 5.27806 20.6624 5 19.2818 5H15.209C14.9329 5 14.6567 5.20855 14.6567 5.48661L13 16.1921C13 16.4006 13.1381 16.6092 13.3452 16.6092H15.8303L16.4515 12.5773L17.1419 8.26725Z" fill="#263577"/>
<path d="M0 0V-1H-1V0H0ZM38 0H39V-1H38V0ZM38 24V25H39V24H38ZM0 24H-1V25H0V24ZM0 1H38V-1H0V1ZM37 0V24H39V0H37ZM38 23H0V25H38V23ZM1 24V0H-1V24H1Z" fill="#EDDEDF"/>
</svg>
