<svg width="22" height="20" viewBox="0 0 22 20" fill="none" xmlns="http://www.w3.org/2000/svg">
<path d="M17.3617 15.4197H8.53156L7.98581 13.2563H19.5255L22 3.44759H5.51133L4.6416 0H0V1.28421H3.62978L7.20872 15.4709C6.16686 15.6926 5.38333 16.6121 5.38333 17.7099C5.38333 18.9726 6.42003 20 7.69436 20C8.96868 20 10.0054 18.9726 10.0054 17.7099C10.0054 17.3491 9.92052 17.0077 9.76991 16.7039H15.2861C15.1355 17.0077 15.0506 17.3491 15.0506 17.7099C15.0506 18.9726 16.0874 20 17.3617 20C18.6359 20 19.6727 18.9726 19.6727 17.7099C19.6726 16.4471 18.6359 15.4197 17.3617 15.4197ZM5.83527 4.7318H20.3402L18.5137 11.9721H7.66183L5.83527 4.7318ZM7.69436 18.7158C7.1346 18.7158 6.67922 18.2645 6.67922 17.7099C6.67922 17.1551 7.1346 16.7039 7.69436 16.7039C8.25411 16.7039 8.70949 17.1551 8.70949 17.7099C8.70949 18.2645 8.25411 18.7158 7.69436 18.7158ZM17.3617 18.7158C16.8019 18.7158 16.3465 18.2645 16.3465 17.7099C16.3465 17.1551 16.8019 16.7039 17.3617 16.7039C17.9214 16.7039 18.3768 17.1551 18.3768 17.7099C18.3767 18.2645 17.9214 18.7158 17.3617 18.7158Z" fill="#212121"/>
</svg>
