<svg width="38" height="24" viewBox="0 0 38 24" fill="none" xmlns="http://www.w3.org/2000/svg">
<path d="M0 0H38V24H0V0Z" fill="white"/>
<path d="M30.1043 8.11816H28.4123C27.9008 8.11816 27.5073 8.27556 27.2712 8.78709L24.0447 16.1452H26.3269C26.3269 16.1452 26.7204 15.1615 26.7991 14.9254C27.0352 14.9254 29.278 14.9254 29.5928 14.9254C29.6715 15.2009 29.8682 16.1059 29.8682 16.1059H31.9144L30.1043 8.11816ZM27.4286 13.2728C27.6254 12.8006 28.2943 11.0299 28.2943 11.0299C28.2943 11.0693 28.491 10.5578 28.5697 10.2823L28.7271 10.9906C28.7271 10.9906 29.16 12.9187 29.2387 13.3121H27.4286V13.2728Z" fill="#3362AB"/>
<path d="M24.2019 13.5088C24.2019 15.1614 22.7067 16.2632 20.3852 16.2632C19.4014 16.2632 18.4571 16.0664 17.9456 15.8303L18.2603 14.0203L18.5358 14.1383C19.2441 14.4531 19.7162 14.5712 20.5819 14.5712C21.2115 14.5712 21.8804 14.3351 21.8804 13.7842C21.8804 13.4301 21.605 13.194 20.7393 12.8005C19.913 12.407 18.8112 11.7774 18.8112 10.6363C18.8112 9.06241 20.3458 8 22.51 8C23.3363 8 24.0446 8.15739 24.4774 8.35414L24.1626 10.0855L24.0052 9.92807C23.6117 9.77068 23.1002 9.61328 22.3526 9.61328C21.5263 9.65263 21.1328 10.0068 21.1328 10.3216C21.1328 10.6757 21.605 10.9511 22.3526 11.3053C23.6117 11.8955 24.2019 12.5644 24.2019 13.5088Z" fill="#3362AB"/>
<path d="M5 8.19646L5.03935 8.03906H8.42331C8.89549 8.03906 9.24962 8.19646 9.36767 8.70798L10.1153 12.2493C9.36767 10.3606 7.63634 8.82603 5 8.19646Z" fill="#F9B50B"/>
<path d="M14.8766 8.11747L11.4533 16.1052H9.13173L7.16431 9.41597C8.58085 10.321 9.7613 11.7375 10.1941 12.7212L10.4302 13.5475L12.555 8.07812H14.8766V8.11747Z" fill="#3362AB"/>
<path d="M15.7812 8.07812H17.9454L16.5682 16.1052H14.4041L15.7812 8.07812Z" fill="#3362AB"/>
<path d="M0 0V-1H-1V0H0ZM38 0H39V-1H38V0ZM38 24V25H39V24H38ZM0 24H-1V25H0V24ZM0 1H38V-1H0V1ZM37 0V24H39V0H37ZM38 23H0V25H38V23ZM1 24V0H-1V24H1Z" fill="#EDDEDF"/>
</svg>
