<svg width="16" height="16" viewBox="0 0 16 16" fill="none" xmlns="http://www.w3.org/2000/svg">
<path d="M15.6703 3.87771C15.486 3.14347 14.9455 2.56467 14.2602 2.36696C13.0081 2 7.99982 2 7.99982 2C7.99982 2 2.9917 2 1.73965 2.35305C1.06748 2.55055 0.513868 3.14357 0.329493 3.87771C0 5.21879 0 8 0 8C0 8 0 10.7952 0.329493 12.1223C0.514063 12.8564 1.0543 13.4352 1.73975 13.6329C3.00489 14 8.00002 14 8.00002 14C8.00002 14 13.0081 14 14.2602 13.6469C14.9456 13.4493 15.486 12.8705 15.6705 12.1364C15.9999 10.7952 15.9999 8.01412 15.9999 8.01412C15.9999 8.01412 16.0131 5.21879 15.6703 3.87771ZM6.40529 10.5694V5.43062L10.5699 8L6.40529 10.5694Z" fill="black"/>
</svg>
